<svg  viewBox="0 0 24 24" xmlns="http://www.w3.org/2000/svg" xmlns:xlink="http://www.w3.org/1999/xlink" focusable="false" role="img" aria-labelledby="id-amex">
<title id="id-amex">Amex</title>
<path fill="#FFFFFE" d="M0 24h24V0H0z"></path>
<path d="M23.094 16.95h-7.887l-.5-.65v.65h-1.71v-1.037c-.216.08-.461.128-.735.128h-.279v.91H9.45l-.388-.542-.376.541H4.565v-3.976h4.137l.384.534.38-.534H24V0H0v9.748l.832-1.94H2.49l.428.996v-.996h2.024l.267.788.267-.788h8.796v.37c.33-.254.757-.37 1.224-.37h2.731l.428.995v-.995h1.637l.476.74v-.74h1.754v3.976h-1.725l-.449-.695v.695H17.9l-.23-.59h-.518l-.23.59h-1.47c-.39 0-.829-.08-1.18-.343v.343h-2.485l-.501-.65v.65H2.162l-.23-.59h-.518l-.23.59H0V24h24v-7.309c-.244.161-.555.26-.906.26" fill="#006FAC"></path><path d="M7.466 14.183v-.635H5.163v2.829h2.303v-.635H5.882v-.48H7.43v-.619H5.882v-.46h1.584zm2.27 2.194h.902l-1.14-1.427 1.132-1.402h-.877l-.667.869-.667-.869h-.9l1.13 1.418-1.126 1.41h.876l.667-.876.67.877zm.962-2.829v2.829h.72v-.922h.848c.622 0 1.006-.408 1.006-.953 0-.566-.376-.954-.982-.954h-1.592zm1.85.958c0 .174-.113.315-.33.315h-.8v-.638h.8c.217 0 .33.145.33.323zm1.75.869h.279l.844 1.002h.885l-.917-1.03c.465-.102.743-.445.743-.886 0-.541-.375-.913-.981-.913h-1.572v2.829h.72v-1.002zm.78-1.192c.218 0 .331.133.331.29 0 .162-.113.287-.331.287h-.78v-.577h.78zm3.644 0v-.635H16.42v2.829h2.303v-.635H17.14v-.48h1.547v-.619H17.14v-.46h1.583zm1.782 1.56h-1.462v.634H20.5c.614 0 .978-.372.978-.918 0-.513-.32-.812-.881-.812h-.67c-.15 0-.255-.093-.255-.234 0-.141.105-.23.254-.23h1.22l.28-.635h-1.492c-.614 0-.981.376-.981.89 0 .533.347.84.885.84h.666c.15 0 .259.093.259.234 0 .141-.11.23-.26.23zm2.59 0h-1.463v.634h1.459c.614 0 .978-.372.978-.918 0-.513-.32-.812-.88-.812h-.672c-.15 0-.254-.093-.254-.234 0-.141.105-.23.254-.23h1.22l.28-.635h-1.492c-.614 0-.982.376-.982.89 0 .533.348.84.885.84h.667c.15 0 .259.093.259.234 0 .141-.11.23-.259.23zM2.55 11.21h.808L2.15 8.38h-.934L.004 11.21h.792l.235-.578h1.284l.235.578zm-1.273-1.192l.392-.97.396.97h-.788zm3.612 1.192h.626l.748-2.093v2.093h.71V8.38h-1.13l-.63 1.803-.635-1.803H3.434v2.829h.712V9.117l.743 2.093zm4.864-2.194V8.38H7.45v2.829h2.303v-.634H8.17v-.481h1.547v-.618H8.17v-.461h1.583zm1.124 1.192h.279L12 11.21h.885l-.917-1.03c.464-.101.743-.445.743-.885 0-.542-.376-.914-.982-.914h-1.571v2.829h.719v-1.002zm.78-1.192c.218 0 .33.133.33.29 0 .162-.112.288-.33.288h-.78v-.578h.78zm1.341 2.194h.72V8.38h-.72v2.829zm2.38 0h.056l.295-.634h-.23c-.453 0-.72-.275-.72-.76v-.04c0-.425.239-.74.708-.74h.76v-.655h-.817c-.889 0-1.365.59-1.365 1.395v.04c0 .869.5 1.394 1.313 1.394zm2.909 0h.808l-1.208-2.83h-.934l-1.212 2.829h.792l.234-.578h1.285l.235.578zm-1.273-1.192l.392-.97.396.97h-.788zm4.036 1.192h.873V8.38h-.715v1.754L20.08 8.381h-.909v2.829h.716V9.392l1.163 1.818z" fill="#006FAC">
</path></svg>