<svg  viewBox="0 0 36 24" xmlns="http://www.w3.org/2000/svg" xmlns:xlink="http://www.w3.org/1999/xlink" focusable="false" role="img" aria-labelledby="apple-pay-title"><title id="apple-pay-title">Apple Pay Mark</title><path d="M31.866 1H3.688c-.097.001-.195.002-.293.005a4.2 4.2 0 0 0-.637.057A2.036 2.036 0 0 0 1.26 2.167a2.192 2.192 0 0 0-.2.615c-.038.213-.05.43-.056.646-.003.098-.004.197-.005.296V20.27c.001.099.002.198.005.297.006.215.018.432.056.645.038.217.101.418.2.614a2.053 2.053 0 0 0 1.497 1.106c.21.038.425.051.637.057l.293.004h28.525c.098 0 .195-.002.294-.004a4.26 4.26 0 0 0 .637-.057c.213-.039.412-.102.606-.203a2.064 2.064 0 0 0 .891-.903c.099-.196.162-.397.2-.614.038-.213.05-.43.056-.645.002-.1.004-.198.004-.297V3.724c0-.099-.002-.198-.004-.296a4.345 4.345 0 0 0-.056-.646 2.177 2.177 0 0 0-.2-.615 2.068 2.068 0 0 0-.891-.903 2.134 2.134 0 0 0-.606-.202 4.211 4.211 0 0 0-.637-.057 14.451 14.451 0 0 0-.294-.004L31.866 1Z" fill="#000"></path><path d="M31.865 1.733h.342c.093.001.186.002.28.005.161.004.351.013.528.045.154.028.283.071.407.135a1.31 1.31 0 0 1 .574.583c.063.124.104.254.132.411.032.177.04.37.045.535l.004.283v16.535c0 .094-.002.187-.004.28a3.686 3.686 0 0 1-.046.538 1.438 1.438 0 0 1-.132.41 1.33 1.33 0 0 1-.978.716 3.582 3.582 0 0 1-.528.046l-.282.004H3.691c-.094 0-.187-.002-.277-.004a3.641 3.641 0 0 1-.529-.046 1.407 1.407 0 0 1-.407-.134 1.298 1.298 0 0 1-.573-.582 1.452 1.452 0 0 1-.133-.412 3.674 3.674 0 0 1-.045-.535 13.858 13.858 0 0 1-.004-.281V3.729c0-.094.002-.188.004-.282.005-.164.013-.356.046-.536a1.45 1.45 0 0 1 .132-.412 1.322 1.322 0 0 1 .98-.716 3.67 3.67 0 0 1 .53-.045c.092-.003.185-.004.277-.004l.343-.001h27.83" fill="#fff"></path><g fill="#000"><path d="M10.257 8.397c.29-.368.487-.862.435-1.367-.425.022-.944.284-1.244.653-.27.315-.508.83-.446 1.313.477.042.954-.241 1.255-.599Zm.43.693c-.692-.041-1.281.4-1.612.4-.331 0-.838-.378-1.386-.368-.713.01-1.374.42-1.736 1.07-.745 1.3-.197 3.227.527 4.286.352.524.775 1.1 1.333 1.08.528-.02.734-.346 1.376-.346.64 0 .826.346 1.385.335.579-.01.94-.524 1.292-1.048.403-.597.568-1.174.579-1.205-.01-.01-1.117-.44-1.127-1.73-.01-1.08.868-1.593.91-1.625-.496-.743-1.272-.827-1.54-.848Z"></path><path d="M19.272 10.213c0-1.531-1.049-2.583-2.554-2.583h-2.91v7.863h1.205v-2.687h1.667c1.522 0 2.592-1.057 2.592-2.593Zm-2.877 1.569h-1.382V8.66H16.4c1.044 0 1.64.566 1.64 1.558 0 .992-.596 1.564-1.645 1.564Zm5.294.387c-1.345.076-2.103.692-2.103 1.694 0 1.03.774 1.728 1.882 1.728.742 0 1.457-.403 1.785-1.041h.027v.943h1.113v-3.95c0-1.15-.876-1.886-2.247-1.886-1.399 0-2.27.763-2.334 1.798h1.097c.102-.512.521-.84 1.194-.84.71 0 1.134.382 1.134 1.02v.441l-1.548.093Zm1.548.725v.452c0 .746-.634 1.313-1.446 1.313-.624 0-1.033-.327-1.033-.828 0-.49.393-.801 1.086-.85l1.393-.087Z"></path><path d="M25.442 17.602v-.954a2.1 2.1 0 0 0 .376.022c.538 0 .828-.23 1.006-.818 0-.01.102-.348.102-.354L24.883 9.76h1.258l1.43 4.665h.022l1.43-4.665h1.226l-2.118 6.032c-.484 1.39-1.044 1.837-2.216 1.837-.097 0-.387-.011-.473-.027Z"></path></g></svg>