<svg viewBox="0 0 34 24" xmlns="http://www.w3.org/2000/svg" xmlns:xlink="http://www.w3.org/1999/xlink" focusable="false" role="img" aria-labelledby="id-discover"><title id="id-discover">Discover</title><defs><linearGradient x1="75.599%" y1="89.221%" x2="40.959%" y2="36.168%" id="DiscoverIcon__1"><stop stop-color="#F6A000" offset="0%"></stop><stop stop-color="#F59B00" offset="23%"></stop><stop stop-color="#F38E00" offset="49%"></stop><stop stop-color="#F18400" offset="62%"></stop><stop stop-color="#EF7902" offset="77%"></stop><stop stop-color="#ED6D05" offset="100%"></stop></linearGradient><linearGradient x1="70.116%" y1="88.51%" x2="19.535%" y2="-8.316%" id="DiscoverIcon__2"><stop stop-color="#F18400" offset="0%"></stop><stop stop-color="#EB7C07" offset="11%"></stop><stop stop-color="#E16E12" offset="31%"></stop><stop stop-color="#D9641A" offset="50%"></stop><stop stop-color="#D45C20" offset="68%"></stop><stop stop-color="#D05824" offset="85%"></stop><stop stop-color="#CF5625" offset="98%"></stop></linearGradient></defs><g fill="none" fill-rule="evenodd"><g fill-rule="nonzero"><path fill="#FFF" d="M1.134 2.179l31.212-.002v19.672H1.139z"></path><path d="M32.237 13.117s-8.53 5.956-24.15 8.62h24.15v-8.62z" fill="#EF7D00"></path><path d="M32.346 2.064H1.025v19.898h31.433V2.064h-.112zm-.113.225v19.447H1.251V2.29l30.982-.001z" fill="#1D1D1B"></path><path d="M3.773 8.153H2.471v4.5h1.295c.69 0 1.186-.16 1.622-.52.52-.427.822-1.06.826-1.728 0-1.327-.996-2.252-2.44-2.252zm1.037 3.38c-.28.25-.641.36-1.214.36h-.24V8.914h.24c.573 0 .92.102 1.214.365.315.289.493.695.49 1.12a1.54 1.54 0 0 1-.49 1.134zm1.814-3.38h1v4.501h-1zM9.68 9.88c-.527-.195-.689-.323-.689-.567 0-.283.28-.5.66-.5a.92.92 0 0 1 .716.366l.464-.602a1.998 1.998 0 0 0-1.336-.499c-.804 0-1.418.553-1.418 1.29 0 .62.285.938 1.118 1.234.212.066.418.152.613.257a.538.538 0 0 1 .267.466.639.639 0 0 1-.206.464.653.653 0 0 1-.483.171 1.055 1.055 0 0 1-.968-.602l-.564.555c.408.593.9.856 1.582.856.92 0 1.57-.606 1.57-1.479-.017-.721-.317-1.045-1.326-1.41zm1.589.527a2.318 2.318 0 0 0 .7 1.675 2.368 2.368 0 0 0 1.7.673c.387 0 .768-.089 1.113-.261v-1.035c-.352.348-.67.494-1.072.494-.893 0-1.527-.642-1.527-1.553a1.49 1.49 0 0 1 .415-1.082c.28-.29.666-.458 1.071-.464.424 0 .744.15 1.113.506V8.327a2.304 2.304 0 0 0-1.092-.277 2.405 2.405 0 0 0-1.706.68 2.355 2.355 0 0 0-.715 1.677zm10.548.769l-1.213-3.023h-.97l1.932 4.617h.476l1.966-4.617h-.963zm2.592 1.478h2.517v-.762h-1.631v-1.215h1.571v-.762h-1.571v-1h1.631v-.762h-2.517zm6.03-3.176c0-.843-.587-1.328-1.61-1.328h-1.316v4.5h.878v-1.808h.116l1.23 1.808h1.092l-1.432-1.895c.673-.132 1.042-.581 1.042-1.277zm-1.78.743h-.26V8.857h.274c.551 0 .852.23.852.668 0 .438-.3.7-.866.7v-.004z" fill="#1D1D1B"></path><path d="M18.912 8.42c0 1.322-1.084 2.394-2.42 2.394-1.337 0-2.42-1.072-2.42-2.395 0-1.322 1.083-2.395 2.42-2.395 1.336.001 2.419 1.073 2.42 2.395z" fill="url(#DiscoverIcon__1)" transform="translate(1 2)"></path><path d="M4.852 2.506c0 1.323-1.083 2.395-2.42 2.395-1.336 0-2.42-1.072-2.42-2.395S1.096.111 2.432.111c1.336.001 2.42 1.073 2.42 2.395z" opacity=".65" transform="translate(15.06 7.913)" fill="url(#DiscoverIcon__2)"></path><path d="M31.06 8.346c0-.094-.065-.146-.18-.146h-.155v.474h.114v-.192l.135.183h.144l-.159-.194a.132.132 0 0 0 .102-.125zm-.21.065h-.02v-.123h.022c.057 0 .086.018.086.06 0 .042-.02.063-.08.063h-.008z" fill="#1D1D1B"></path><path d="M30.947 8.052a.42.42 0 0 0-.422.418c0 .23.189.417.422.417a.42.42 0 0 0 .422-.417.42.42 0 0 0-.422-.418zm0 .754a.344.344 0 0 1-.327-.202.338.338 0 0 1 .066-.374.346.346 0 0 1 .377-.08.34.34 0 0 1-.116.656z" fill="#1D1D1B"></path></g></g></svg>