<svg viewBox="0 0 39 24" xmlns="http://www.w3.org/2000/svg" xmlns:xlink="http://www.w3.org/1999/xlink" focusable="false" role="img" aria-labelledby="id-mastercard"><title id="id-mastercard">Mastercard</title><path d="M32.1 17.12v-.39h-.076l-.089.268-.087-.268h-.077v.39h.054v-.294l.083.254h.056l.082-.255v.295h.054zm-.484 0v-.324h.098v-.066h-.25v.066h.098v.324h.054z" fill="#F79410"></path><path fill="#FF5F00" d="M22.82 18.08H16.1V5.92h6.72z"></path><path d="M16.456 12a7.864 7.864 0 0 1 2.99-6.183 7.773 7.773 0 0 0-4.839-1.682C10.284 4.135 6.78 7.656 6.78 12s3.505 7.864 7.828 7.864a7.773 7.773 0 0 0 4.839-1.681A7.864 7.864 0 0 1 16.456 12" fill="#EB001B"></path><path d="M32.42 12c0 4.343-3.553 7.864-7.936 7.864a7.951 7.951 0 0 1-4.905-1.681A7.825 7.825 0 0 0 22.61 12a7.825 7.825 0 0 0-3.031-6.183 7.951 7.951 0 0 1 4.905-1.682c4.383 0 7.936 3.521 7.936 7.865" fill="#F79E1B"></path></svg>