<svg  viewBox="0 0 40 24" xmlns="http://www.w3.org/2000/svg" xmlns:xlink="http://www.w3.org/1999/xlink" focusable="false" role="img" aria-labelledby="id-visa"><title id="id-visa">VISA</title><path d="M15.67 6.21 11 17.82H7.88L5.56 8.56a1.26 1.26 0 0 0-.69-1A11.74 11.74 0 0 0 2 6.55l.07-.34H7A1.37 1.37 0 0 1 8.36 7.4l1.22 6.71 3-7.9Zm12 7.82c0-3.06-4.11-3.23-4.08-4.6 0-.42.4-.86 1.24-1a5.27 5.27 0 0 1 2.91.57l.51-2.46A7.42 7.42 0 0 0 25.53 6c-2.87 0-4.9 1.58-4.91 3.84 0 1.67 1.44 2.6 2.54 3.16s1.52.93 1.51 1.44c0 .78-.9 1.12-1.74 1.13a5.85 5.85 0 0 1-3-.73l-.52 2.54a8.32 8.32 0 0 0 3.23.62c3.06 0 5.06-1.56 5.07-4m7.59 3.79H38L35.65 6.21h-2.48a1.35 1.35 0 0 0-1.24.85l-4.37 10.76h3.06l.61-1.74H35Zm-3.25-4.11 1.53-4.36.89 4.36ZM19.82 6.21l-2.4 11.61h-2.91l2.41-11.61Z" fill="#1434cb"></path></svg>